<svg width="34" height="34" viewBox="0 0 34 34" fill="none" xmlns="http://www.w3.org/2000/svg">
<path d="M15.5834 5.66663H5.66671C4.91526 5.66663 4.19459 5.96514 3.66324 6.49649C3.13188 7.02784 2.83337 7.74851 2.83337 8.49996V28.3333C2.83337 29.0847 3.13188 29.8054 3.66324 30.3368C4.19459 30.8681 4.91526 31.1666 5.66671 31.1666H25.5C26.2515 31.1666 26.9722 30.8681 27.5035 30.3368C28.0349 29.8054 28.3334 29.0847 28.3334 28.3333V18.4166" stroke="white" stroke-width="2" stroke-linecap="round" stroke-linejoin="round"/>
<path d="M26.2084 3.54158C26.772 2.978 27.5363 2.66138 28.3334 2.66138C29.1304 2.66138 29.8948 2.978 30.4584 3.54158C31.022 4.10517 31.3386 4.86955 31.3386 5.66658C31.3386 6.46361 31.022 7.228 30.4584 7.79158L17 21.2499L11.3334 22.6666L12.75 16.9999L26.2084 3.54158Z" stroke="white" stroke-width="2" stroke-linecap="round" stroke-linejoin="round"/>
</svg>
