<svg width="28" height="28" viewBox="0 0 28 28" fill="none" xmlns="http://www.w3.org/2000/svg">
    <defs>
        <linearGradient id="paint0_linear_129_36" x1="17.8888" y1="18.2778" x2="17.8888" y2="44.3334" gradientUnits="userSpaceOnUse">
            <stop stop-color="#8C4AAE"/>
            <stop offset="1" stop-color="#8C4AAE" stop-opacity="0"/>
            <stop offset="1" stop-color="white"/>
        </linearGradient>
        <linearGradient id="paint1_linear_129_36" x1="22.9444" y1="5.05557" x2="24.8888" y2="17.1111" gradientUnits="userSpaceOnUse">
            <stop stop-color="white" stop-opacity="0"/>
            <stop offset="1" stop-color="white"/>
        </linearGradient>
        <linearGradient id="paint2_linear_129_36" x1="7.77778" y1="19.3224" x2="7.77778" y2="39.9336" gradientUnits="userSpaceOnUse">
            <stop stop-color="#A771EC"/>
            <stop offset="1" stop-color="white"/>
        </linearGradient>
        <linearGradient id="paint3_linear_129_36" x1="11.6666" y1="10.1111" x2="12.8333" y2="18.6667" gradientUnits="userSpaceOnUse">
            <stop stop-color="white" stop-opacity="0"/>
            <stop offset="1" stop-color="white"/>
        </linearGradient>
    </defs>
<path d="M18.0481 28C23.5443 28 27.9999 23.5094 27.9999 17.9701C27.9999 17.4285 27.9756 14.5857 27.3779 13.3731C26.8997 12.4028 26.2358 10.7115 25.512 9.61193C22.8335 5.54305 19.035 2.03839 18.0481 0C17.0478 2.06628 13.4498 5.56712 10.7916 9.61193C10.0673 10.714 9.18496 12.4057 8.7183 13.3731C8.18088 14.4872 8.09631 17.46 8.09631 17.9701C8.09631 23.5094 12.5519 28 18.0481 28Z" fill="url(#paint0_linear_129_36)"/>
<path d="M21.7777 7.24739C22.1306 7.83203 22.634 8.30621 23.0078 8.87718C23.4737 9.58891 23.8865 10.3162 24.293 11.0648C24.6004 11.6308 24.8894 12.1857 25.1122 12.7927C25.3635 13.4773 25.5721 14.1807 25.7803 14.8768" stroke="url(#paint1_linear_129_36)" stroke-opacity="0.5" stroke-linecap="round"/>
<path d="M15.6928 19.6829C15.6928 23.9385 12.2861 27.378 8.09639 27.378C3.90671 27.378 0.5 23.9385 0.5 19.6829C0.5 19.4885 0.516615 18.7925 0.586908 18.0362C0.622014 17.6584 0.669851 17.273 0.733937 16.9313C0.799592 16.5812 0.87637 16.3106 0.956733 16.1433C1.33305 15.3598 2.03983 14.0005 2.61116 13.1274C3.6696 11.5099 4.91701 9.99646 6.01955 8.6588L6.03618 8.63861L6.06434 8.60445C6.85585 7.64416 7.59314 6.74965 8.10054 5.98332C8.27317 6.23633 8.47084 6.50004 8.68461 6.77156C9.11332 7.31607 9.62849 7.91859 10.1765 8.5595L10.2364 8.62959C11.3842 9.97213 12.681 11.4961 13.7505 13.1277C14.0234 13.5441 14.2928 14.0856 14.5487 14.6395C14.6462 14.8505 14.7435 15.0676 14.8378 15.2777C14.982 15.5994 15.119 15.9048 15.2379 16.1471C15.4349 16.5485 15.5578 17.2891 15.624 18.0535C15.6879 18.7926 15.6928 19.4676 15.6928 19.6829Z" fill="url(#paint2_linear_129_36)" stroke="white"/>
<path d="M10.4546 11.4522C10.6987 11.8567 11.047 12.1848 11.3056 12.5798C11.628 13.0723 11.9136 13.5755 12.1949 14.0934C12.4076 14.485 12.6075 14.869 12.7617 15.2889C12.9355 15.7626 13.0799 16.2493 13.2239 16.7309" stroke="url(#paint3_linear_129_36)" stroke-opacity="0.5" stroke-linecap="round"/>
</svg>
