<svg width="36" height="33" viewBox="0 0 36 33" fill="none" xmlns="http://www.w3.org/2000/svg">
<g filter="url(#filter0_d_287_24)">
<path d="M26.4578 7.50292C25.9691 7.02645 25.3889 6.64848 24.7503 6.39061C24.1117 6.13273 23.4272 6 22.7359 6C22.0446 6 21.3601 6.13273 20.7215 6.39061C20.0829 6.64848 19.5026 7.02645 19.0139 7.50292L17.9997 8.4913L16.9855 7.50292C15.9984 6.54094 14.6596 6.0005 13.2636 6.0005C11.8676 6.0005 10.5288 6.54094 9.54168 7.50292C8.55456 8.46491 8 9.76964 8 11.1301C8 12.4906 8.55456 13.7953 9.54168 14.7573L10.5559 15.7457L17.9997 23L25.4436 15.7457L26.4578 14.7573C26.9467 14.281 27.3346 13.7156 27.5992 13.0932C27.8638 12.4708 28 11.8038 28 11.1301C28 10.4564 27.8638 9.78935 27.5992 9.16699C27.3346 8.54463 26.9467 7.97917 26.4578 7.50292Z" fill="#F8F3FD"/>
</g>
<defs>
<filter id="filter0_d_287_24" x="0" y="0" width="36" height="33" filterUnits="userSpaceOnUse" color-interpolation-filters="sRGB">
<feFlood flood-opacity="0" result="BackgroundImageFix"/>
<feColorMatrix in="SourceAlpha" type="matrix" values="0 0 0 0 0 0 0 0 0 0 0 0 0 0 0 0 0 0 127 0" result="hardAlpha"/>
<feOffset dy="2"/>
<feGaussianBlur stdDeviation="4"/>
<feComposite in2="hardAlpha" operator="out"/>
<feColorMatrix type="matrix" values="0 0 0 0 0 0 0 0 0 0 0 0 0 0 0 0 0 0 0.12 0"/>
<feBlend mode="normal" in2="BackgroundImageFix" result="effect1_dropShadow_287_24"/>
<feBlend mode="normal" in="SourceGraphic" in2="effect1_dropShadow_287_24" result="shape"/>
</filter>
</defs>
</svg>
