<svg width="34" height="34" viewBox="0 0 34 34" fill="none" xmlns="http://www.w3.org/2000/svg">
<path d="M33.0001 21.8208C33.0001 28.0023 28.0301 32.9999 21.9157 32.9999C15.8014 32.9999 10.8314 28.0023 10.8314 21.8208C10.8314 21.5392 10.8559 20.513 10.96 19.3978C11.012 18.841 11.0825 18.2768 11.1761 17.7797C11.2729 17.2658 11.3825 16.8906 11.4874 16.6732C12.0473 15.5124 13.0965 13.5043 13.9399 12.2208C15.5119 9.8288 17.3663 7.58868 19.0142 5.59798L19.0352 5.57253L19.0999 5.49435C20.1631 4.21008 21.1743 2.98857 21.9251 1.90901C22.133 2.19806 22.3586 2.49354 22.5956 2.79336C23.2388 3.60675 24.0108 4.5057 24.8272 5.45641L24.9184 5.56266C26.6328 7.55935 28.5578 9.8123 30.1437 12.2215C30.5399 12.8233 30.9354 13.6134 31.3166 14.4349C31.4589 14.7416 31.603 15.0615 31.7433 15.3731C31.9606 15.8555 32.169 16.3179 32.3478 16.6809C32.6178 17.2286 32.7994 18.2835 32.8983 19.4219C32.9928 20.5094 33.0001 21.504 33.0001 21.8208Z" stroke="white" stroke-width="2"/>
<path d="M18.6626 24.0488C18.6626 29.0039 14.6973 33 9.83132 33C4.96531 33 1 29.0039 1 24.0488C1 23.8237 1.01972 22.9908 1.10385 22.0856C1.14583 21.6338 1.20254 21.1788 1.27733 20.78C1.35527 20.3644 1.44103 20.0766 1.51587 19.9208C1.97022 18.9748 2.81972 17.3424 3.49942 16.3037C4.77281 14.3577 6.27609 12.5338 7.61835 10.9053L7.6328 10.8878C7.65527 10.8605 7.67771 10.8333 7.70014 10.8061C8.48632 9.85231 9.24566 8.9311 9.84154 8.09739C9.96795 8.268 10.1004 8.44036 10.2369 8.61377C10.7625 9.28137 11.3928 10.0184 12.0559 10.794C12.081 10.8234 12.1061 10.8528 12.1313 10.8822C13.527 12.5147 15.0856 14.3471 16.3684 16.3043C16.6829 16.7841 17 17.4193 17.3097 18.0895C17.4232 18.3353 17.5396 18.5947 17.6535 18.8487C17.8317 19.2459 18.0039 19.6298 18.1505 19.9284C18.3534 20.342 18.4999 21.1723 18.5805 22.1041C18.6567 22.9852 18.6626 23.7921 18.6626 24.0488Z" stroke="white" stroke-width="2"/>
</svg>
